<svg version="1.1" id="Layer_1" xmlns="http://www.w3.org/2000/svg" xmlns:xlink="http://www.w3.org/1999/xlink" x="0px" y="0px"
	 width="100%" viewBox="0 0 586 390" enable-background="new 0 0 586 390" xml:space="preserve">
<path fill="#FFFFFF" opacity="1.000000" stroke="none" 
	d="
M435.000000,391.000000 
	C291.500031,391.000000 148.500046,390.982910 5.500175,391.094055 
	C1.750928,391.096954 0.902341,390.249817 0.905694,386.500000 
	C1.019235,259.500153 1.019214,132.500153 0.905749,5.500280 
	C0.902399,1.751194 1.750052,0.904244 5.499855,0.906319 
	C197.833099,1.012740 390.166412,1.012722 582.499634,0.906420 
	C586.248108,0.904348 587.097717,1.749364 587.094360,5.499747 
	C586.980774,132.499619 586.980835,259.499634 587.094238,386.499481 
	C587.097595,390.248016 586.252258,391.108307 582.500122,391.097107 
	C533.500427,390.950928 484.500153,391.000000 435.000000,391.000000 
z"/>
<path fill="#F94D0F" opacity="1.000000" stroke="none" 
	d="
M268.566895,307.227905 
	C267.710510,307.134583 267.369476,306.958679 266.745178,306.725647 
	C266.076263,306.748688 265.728760,306.672821 265.232117,306.209076 
	C265.038544,306.002991 265.018066,305.968781 264.998169,305.969513 
	C256.030945,302.303375 249.591812,296.012054 245.138382,287.464355 
	C242.067551,281.570312 241.073380,281.381622 235.192352,284.411652 
	C233.477676,285.295074 232.013321,286.994781 229.628448,285.577942 
	C229.396255,284.100098 230.126312,283.390961 230.996857,282.478668 
	C227.757019,284.768829 225.785583,283.477448 224.959320,280.411987 
	C223.653793,275.568451 220.195816,274.407288 215.840927,274.410614 
	C212.827820,274.412933 210.033203,274.716827 209.819061,278.677612 
	C209.801239,279.007050 209.706512,279.354279 209.522186,279.625946 
	C205.742249,285.197906 200.611053,280.551941 196.167267,281.142487 
	C193.710739,281.468872 192.186600,278.517151 192.322617,275.647522 
	C193.001495,261.324432 192.546951,246.992599 192.567169,232.665878 
	C192.573166,228.416260 194.644913,225.019394 196.028152,221.314011 
	C196.559753,219.889969 197.579224,219.341217 199.202850,219.744583 
	C201.293259,220.263901 203.531250,219.898773 204.760254,220.378860 
	C199.587830,220.933197 195.249832,218.261520 192.213959,213.163101 
	C191.625717,212.175171 190.580704,211.512680 189.674774,210.774948 
	C184.427933,206.502335 180.059967,208.118179 178.604279,214.910782 
	C178.218002,216.713165 178.391647,218.564667 178.375931,220.395676 
	C178.203018,240.555206 178.735764,260.718353 178.069611,280.874817 
	C178.015350,282.516144 178.218216,284.232574 176.982254,286.008911 
	C175.817261,286.553680 175.083893,286.328064 174.261826,285.342896 
	C174.069473,284.526581 174.062714,284.081390 173.985794,283.309509 
	C172.828735,278.595367 173.003784,274.121399 173.003952,269.659729 
	C173.004593,252.579437 173.023102,235.499100 172.987579,218.418900 
	C172.980133,214.838593 173.650635,211.525497 176.182358,208.268448 
	C176.606201,207.748611 176.714417,207.592728 176.890289,207.160309 
	C177.127060,206.776901 177.296158,206.669998 177.510498,206.266434 
	C177.555740,205.969757 177.912994,205.623398 178.005829,205.392578 
	C178.786469,203.460144 179.726028,201.991501 181.905182,201.262085 
	C182.738800,200.941223 183.262314,200.741165 183.930420,200.298294 
	C184.941071,198.918594 186.205566,198.619720 187.789948,198.240356 
	C194.838211,195.990494 201.097946,197.238708 207.283081,200.506546 
	C217.719147,206.020355 228.353363,211.158279 238.813812,216.627289 
	C241.685196,218.128540 242.833191,217.629272 244.250732,214.646133 
	C252.442413,197.407181 266.095734,188.355240 285.342377,188.276199 
	C306.483490,188.189377 327.625305,188.165955 348.766449,188.229095 
	C360.426392,188.263916 370.491791,192.412155 379.173889,200.746017 
	C379.665497,201.346756 379.993896,201.588013 380.680298,201.909424 
	C380.913940,202.149185 380.965820,202.051575 380.916626,202.076782 
	C384.283112,204.412567 385.926117,207.983109 387.666077,211.880188 
	C387.752045,212.214539 387.879028,212.218445 387.822449,212.247314 
	C388.760468,212.604294 388.955902,213.436996 389.083466,214.651428 
	C389.259735,215.526566 389.413147,216.077209 389.791199,216.812592 
	C390.982666,217.897141 390.976715,219.095566 391.047791,220.630859 
	C391.377838,223.717987 391.682953,226.452240 392.067902,229.600311 
	C392.539948,230.727020 392.484039,231.498779 392.300903,232.626831 
	C392.112793,233.745758 392.067505,234.506332 392.091248,235.643097 
	C392.629913,249.244797 392.852722,262.469025 391.986511,275.689026 
	C391.795898,278.598358 390.238007,280.975037 388.691345,283.815125 
	C387.048981,284.795105 386.037048,284.423950 385.120239,282.799316 
	C384.547394,280.539459 384.420990,278.508789 385.729065,277.140045 
	C388.721466,274.008972 388.673584,270.247375 388.587097,266.388123 
	C388.549774,264.722504 388.431702,263.039551 388.605865,261.391449 
	C389.527496,252.669373 387.465973,244.268158 385.953278,235.808441 
	C385.301941,232.165878 385.534058,228.588989 387.083313,223.973984 
	C384.034576,226.926987 384.176849,229.539383 384.960083,232.005203 
	C386.276154,236.148392 385.885223,240.085999 384.974182,244.272964 
	C383.729980,249.991302 384.436432,255.889374 384.584503,261.713287 
	C384.648132,264.215454 385.236481,267.221191 381.683105,267.538147 
	C378.421295,267.829102 377.665436,264.919281 377.244354,262.466156 
	C376.109344,255.853638 376.109253,249.159225 377.189606,242.565674 
	C378.238708,236.162918 376.933868,230.686035 372.032104,225.841156 
	C370.796722,225.166000 369.879120,224.722214 368.670471,224.036621 
	C368.179810,223.670135 368.001892,223.503571 367.657654,223.016876 
	C367.353821,222.063644 367.538727,221.485123 367.720032,220.881836 
	C367.910431,220.248383 368.134766,220.989899 367.832214,220.483154 
	C367.559937,220.027176 367.637482,220.920212 367.045959,221.100494 
	C366.320557,221.223480 365.933990,221.031265 365.416260,220.431702 
	C364.308136,218.010925 364.079895,215.838684 365.145966,213.538300 
	C363.152252,213.455963 361.448517,214.509384 359.417908,213.543274 
	C357.158752,211.720703 355.214630,209.989151 352.025879,211.489853 
	C349.985046,212.207840 348.398346,211.530411 346.434937,210.974609 
	C345.351837,210.659195 344.624786,210.630630 343.506042,211.050537 
	C324.799286,211.754929 306.485687,211.131531 287.754639,211.569473 
	C286.812042,211.815887 286.282410,211.948730 285.365692,212.088531 
	C281.526947,212.118988 278.080414,212.169495 274.852356,214.562469 
	C274.402649,214.864838 274.223389,214.982910 273.770966,215.262802 
	C272.953339,215.718430 272.389435,215.976624 271.628387,216.499908 
	C271.080597,216.960892 270.783844,217.246490 270.292114,217.791199 
	C269.955109,218.217285 269.822357,218.394043 269.315308,219.156937 
	C268.821320,219.957947 268.701630,220.172821 268.401733,220.722153 
	C265.262360,225.676620 264.212006,230.724091 264.356567,236.194031 
	C264.548889,243.472153 264.729034,250.777603 264.318909,258.037689 
	C263.841949,266.481293 265.504730,274.136963 270.727356,281.303772 
	C271.518555,283.234802 270.661499,285.996643 274.231079,285.535004 
	C275.211304,285.465302 275.840118,285.598389 276.746643,285.953491 
	C277.637177,286.309723 278.242218,286.506897 279.217834,286.603882 
	C279.974640,286.847229 280.336273,287.123535 280.839478,287.771423 
	C281.337189,288.759277 281.461456,289.460999 281.025208,290.497253 
	C280.317383,291.240784 279.780579,291.647827 279.099915,291.708862 
	C273.329041,292.226196 273.344452,292.221222 273.312683,298.213715 
	C273.299622,300.681793 273.480133,303.160156 272.929688,305.956665 
	C272.709900,306.507538 272.595764,306.714905 272.226501,307.163849 
	C271.566254,307.607391 271.141541,307.745056 270.378174,307.776001 
	C269.685059,307.638031 269.349762,307.446167 268.566895,307.227905 
z"/>
<path fill="#F94E0F" opacity="1.000000" stroke="none" 
	d="
M215.919556,74.221863 
	C224.878250,67.757523 234.002274,62.443031 244.859543,60.821529 
	C269.755127,57.103447 289.687683,65.394440 304.336212,85.811478 
	C306.664551,89.056671 307.995880,88.980888 310.855743,86.822754 
	C328.219116,73.719971 351.186096,73.012138 369.609497,84.944733 
	C372.929565,85.835709 375.180481,87.553719 376.849579,90.542206 
	C377.122589,90.740242 377.081726,90.882957 377.155853,90.886993 
	C379.217163,92.582436 382.050354,93.472816 382.676025,96.865234 
	C382.770630,97.187538 382.985657,97.029892 382.870728,97.097359 
	C383.436066,97.390900 383.455444,98.027969 383.780701,98.822182 
	C383.932343,99.075264 383.997131,99.001427 383.958008,99.031197 
	C384.943024,99.991730 385.853424,100.971321 385.162170,102.833939 
	C380.020569,101.391350 374.631165,101.520775 369.893433,99.212479 
	C366.841095,97.725334 365.468048,95.207802 366.022034,91.852203 
	C366.513611,88.874733 365.034393,87.632675 362.632996,86.068192 
	C350.402924,78.100433 337.583313,81.858124 324.848724,83.700249 
	C322.308533,84.067703 321.823730,86.406487 321.047852,88.475716 
	C318.865173,94.296814 315.888824,96.459091 310.858185,96.283714 
	C308.388428,96.197609 306.269043,95.578728 304.969299,93.251785 
	C304.305115,92.062630 303.391510,91.026855 302.094025,90.586571 
	C298.664001,89.422684 295.625793,88.025154 295.249084,83.736877 
	C295.144348,82.544769 293.801025,81.980415 292.793701,81.403595 
	C290.700684,80.205070 289.049316,78.665878 288.369476,76.247391 
	C288.145508,75.450577 287.778778,74.226692 287.129486,74.181671 
	C280.328247,73.710114 277.270203,66.582092 270.477234,65.399689 
	C264.216003,64.309845 258.191986,62.648991 251.810455,63.906124 
	C248.705353,64.517815 245.494247,64.191216 242.408173,65.045708 
	C237.768494,66.330345 236.864365,67.741508 238.400360,72.222321 
	C239.585861,75.680649 240.890106,79.111198 242.828384,82.667007 
	C243.482513,84.005653 243.350555,84.905922 242.258240,85.913025 
	C241.788574,86.261887 241.592102,86.383965 241.087128,86.649384 
	C239.361420,87.266624 237.914825,87.683891 236.610840,89.044022 
	C236.200851,89.376068 236.026810,89.495377 235.574127,89.760567 
	C233.890381,90.396439 232.783249,91.264206 231.780334,92.771599 
	C231.418060,93.173508 231.257523,93.323685 230.818176,93.658447 
	C227.794571,95.027504 226.601364,97.501198 225.325958,100.313293 
	C225.146378,100.844078 225.070450,101.054298 224.866852,101.572990 
	C224.552063,102.285202 224.357803,102.685455 224.009766,103.383133 
	C223.758575,103.881523 223.653015,104.078545 223.373657,104.562180 
	C222.178391,106.711296 220.369965,108.326172 221.445770,111.131821 
	C221.642792,111.916985 221.631592,112.379486 221.427856,113.174393 
	C218.871078,121.162170 220.489716,128.350967 224.077362,135.557571 
	C224.509277,135.915894 224.678284,136.060425 225.070679,136.446869 
	C226.117462,137.886581 226.298126,139.420731 227.503693,140.736969 
	C227.838776,141.088501 227.971436,141.227554 228.294510,141.576782 
	C228.726379,142.063522 228.971237,142.337036 229.417908,142.782257 
	C229.751678,143.066193 229.887909,143.174561 230.236145,143.431671 
	C230.595535,143.669235 230.742935,143.758041 231.117340,143.969818 
	C231.495712,144.175354 231.647079,144.257904 232.017532,144.478912 
	C232.509476,144.828171 232.763397,145.059875 233.166962,145.505844 
	C233.432297,145.841461 233.531204,145.981339 233.782227,146.327057 
	C234.165283,146.796967 234.418076,147.038422 234.918213,147.426422 
	C235.302048,147.711884 235.455246,147.833557 235.835327,148.151932 
	C236.842392,149.079193 237.772491,149.547806 239.079407,150.022156 
	C239.585541,150.250031 239.782303,150.354401 240.246826,150.658234 
	C241.859360,152.715652 243.655838,152.996658 246.053772,152.277176 
	C247.343658,152.087631 248.251572,152.222244 249.388306,152.901611 
	C251.730377,155.453796 254.435776,154.044617 256.724548,154.031891 
	C263.596191,153.993698 270.203888,152.651169 275.795807,147.550720 
	C276.185608,147.114365 276.354126,146.950729 276.809113,146.581467 
	C279.373993,145.651413 280.846100,143.641205 283.331665,142.684052 
	C287.297241,145.141449 286.301422,147.519272 283.551056,149.857666 
	C280.456451,152.488724 277.330139,155.091339 275.337494,158.691620 
	C277.097443,160.170609 278.023987,159.057297 278.915985,158.518295 
	C282.137054,156.571869 284.937714,156.597885 286.983459,160.121658 
	C288.393494,162.550415 289.724670,162.733749 291.433746,160.408508 
	C292.852020,158.478897 295.609436,157.460297 295.264130,154.361664 
	C294.984070,151.848297 295.741943,149.742462 298.729645,150.346939 
	C301.461761,150.899689 305.684326,149.553345 305.702698,154.659592 
	C305.705688,155.492493 305.740662,156.324875 305.707764,157.481018 
	C305.657837,158.245651 305.004028,158.405151 305.115295,158.800552 
	C305.204956,159.119247 305.518921,158.980957 305.862732,158.282257 
	C308.443451,156.949127 309.871033,157.223465 311.134308,159.966003 
	C313.524475,165.155075 317.839783,168.484161 323.240692,170.365768 
	C328.065186,172.046570 329.878571,171.288025 331.783051,166.619965 
	C332.409271,165.085083 332.603241,163.137314 334.915527,163.520401 
	C336.889343,163.847443 336.664825,165.588745 336.875092,167.064560 
	C337.935242,174.504303 341.404419,176.585846 348.302795,173.727219 
	C352.108795,172.150040 355.558533,169.869873 359.725128,168.960632 
	C363.098480,168.224487 364.125244,164.290176 366.985138,162.376648 
	C370.971649,159.709259 375.554260,157.985977 379.054321,154.469360 
	C381.643097,151.868301 383.793610,149.222046 383.649109,145.463303 
	C383.374420,138.318741 385.847687,131.724609 387.639374,125.022820 
	C388.314209,122.498672 388.129578,120.689316 386.772339,118.523827 
	C383.930847,113.990227 382.933929,109.023849 384.619995,103.439651 
	C389.585815,103.103836 388.085785,107.574570 389.688751,110.193207 
	C389.696381,110.585411 389.640717,110.833725 389.732056,110.922302 
	C391.802277,114.118248 391.849365,117.678741 392.178955,121.574448 
	C392.104492,122.427887 392.056671,122.873596 392.078674,123.650085 
	C392.420929,124.405258 392.534515,124.868607 392.313629,125.695053 
	C392.088257,126.768707 392.038635,127.518173 392.056458,128.638702 
	C392.547333,129.723145 392.483276,130.504410 392.274475,131.636017 
	C392.041748,132.435379 391.974945,132.881439 391.953857,133.664001 
	C392.128235,137.653854 391.268921,141.068039 389.390015,144.627960 
	C389.098175,145.308395 388.930908,145.626419 388.759308,146.217224 
	C388.795258,146.901398 388.673828,147.261780 388.197510,147.784424 
	C387.983002,147.990921 388.000397,147.999390 387.993439,147.991852 
	C386.812744,151.529877 385.520477,155.008728 382.327606,157.796249 
	C381.361115,158.790573 380.660400,159.556213 379.872040,160.629425 
	C377.948547,164.486801 374.634277,166.434250 371.212524,168.756927 
	C370.923248,168.935120 370.965271,168.895157 370.936584,168.891022 
	C365.355988,173.632217 358.857880,176.256729 351.359253,177.319458 
	C350.510864,177.229660 350.023407,177.268234 349.208313,177.474335 
	C347.580872,177.437271 346.280029,177.225464 344.819641,178.421768 
	C342.865936,179.099197 341.265442,179.158783 339.331238,178.321808 
	C338.562378,178.029373 338.138428,177.960800 337.391235,177.920593 
	C336.937164,177.823654 336.806366,177.698380 336.413086,177.643372 
	C334.389465,177.477264 332.628326,177.240891 330.422089,177.046539 
	C323.567413,175.931290 317.693451,173.546677 312.293945,169.216675 
	C312.036407,168.948853 312.016022,169.007401 312.036560,168.983658 
	C311.883850,168.813034 311.710632,168.666153 311.256378,168.326736 
	C310.975342,168.134216 310.977295,168.029709 310.925262,168.034576 
	C307.934937,166.202225 305.048309,164.287994 302.916748,161.487259 
	C301.160431,159.179581 299.531647,159.402054 297.687073,161.422745 
	C295.688843,163.611725 293.618530,165.770630 290.345673,166.808197 
	C289.393219,167.469788 288.685669,167.894241 287.825012,168.594574 
	C285.820740,171.146744 282.979034,171.504898 280.226501,172.771240 
	C279.949493,172.970352 279.474396,173.000351 279.268677,173.120087 
	C272.276276,176.373062 265.246063,178.523224 257.337311,178.309692 
	C254.646362,178.002243 252.304489,177.921570 249.525116,177.874298 
	C248.942001,177.791092 248.796402,177.674515 248.377502,177.617828 
	C246.691162,177.439743 245.278152,177.201767 243.432373,176.988831 
	C239.679016,176.813293 236.706314,175.363113 233.322632,174.137207 
	C222.442276,168.902573 213.320282,162.116089 206.411652,152.095490 
	C203.753464,150.442780 203.372040,147.820023 202.227692,145.249268 
	C202.026779,144.972809 202.000000,145.000000 202.014877,144.987701 
	C198.930084,139.635986 196.810272,133.985336 196.696960,127.368446 
	C196.827362,126.538773 196.816971,126.082764 196.685028,125.304787 
	C196.606110,124.643341 196.509964,124.349205 196.285492,123.861633 
	C196.342773,123.269745 196.389618,122.916611 196.363495,122.303978 
	C195.623886,112.493988 195.785614,103.091812 201.422028,94.276260 
	C201.859863,93.545296 202.074783,93.168053 202.396301,92.482224 
	C202.978928,88.018967 206.055496,85.439751 208.650360,82.179367 
	C208.890717,81.935631 208.982391,81.946045 208.952179,81.911179 
	C209.300812,81.631935 209.496094,81.279167 209.608765,80.518669 
	C210.986206,77.567566 212.865311,75.510986 215.919556,74.221863 
z"/>
<path fill="#F64E0C" opacity="1.000000" stroke="none" 
	d="
M291.408569,310.421783 
	C289.908478,310.148987 288.841522,310.103333 287.379150,310.128784 
	C286.261444,310.525665 285.499023,310.485992 284.376709,310.319611 
	C282.294952,310.093201 280.573090,309.993439 278.422974,309.949280 
	C276.273376,309.540314 273.706360,311.063751 273.429596,307.597961 
	C279.263031,303.367798 285.363617,302.221924 292.112823,302.362518 
	C307.582611,302.684692 323.063629,302.456451 338.540100,302.470276 
	C341.699860,302.473114 344.881531,302.368500 348.270874,303.942413 
	C349.748993,306.463654 354.045105,306.423798 352.661438,310.434570 
	C335.740204,310.637970 319.236328,311.239868 302.727783,310.981903 
	C299.098907,310.925201 295.451599,311.349976 291.408569,310.421783 
z"/>
<path fill="#FDE1CA" opacity="1.000000" stroke="none" 
	d="
M229.746613,285.825409 
	C232.716217,284.821686 235.585815,283.838470 238.107574,282.289093 
	C241.440048,280.241608 243.212479,280.614288 244.819107,284.459808 
	C248.749252,293.866730 255.603592,300.713135 264.808350,305.681610 
	C258.169220,306.230499 254.699707,300.587433 250.203613,297.093719 
	C247.964661,295.353943 246.745300,295.606140 244.348984,297.231506 
	C244.859222,293.550201 246.928864,290.824951 244.271790,287.546295 
	C241.130295,283.669922 238.729553,282.639404 235.068954,285.944794 
	C233.183258,287.647552 231.499390,289.058105 228.699234,289.144012 
	C226.255447,289.218994 225.827301,290.149628 224.135925,294.677032 
	C221.735977,292.186768 219.885803,293.376831 217.292084,294.863770 
	C209.474838,299.345306 201.599640,304.173889 191.455978,302.984161 
	C190.306900,302.666107 189.506470,301.906097 188.915436,302.043945 
	C182.659470,303.503082 180.149155,299.461334 178.186874,294.186707 
	C178.778366,293.363098 179.208633,293.249176 179.993042,293.259155 
	C180.530884,293.377960 180.736969,293.457550 181.204926,293.735901 
	C182.420151,295.059662 183.229370,296.336029 184.946960,297.111053 
	C185.440460,297.352875 185.639648,297.450958 186.139847,297.700378 
	C192.199661,300.643860 197.967651,300.573883 204.039459,297.722931 
	C204.934525,297.191315 205.558502,296.890411 206.474792,296.410889 
	C210.374863,294.453217 214.146973,293.012512 217.909271,290.803955 
	C218.395187,290.559204 218.592484,290.470642 219.091705,290.274231 
	C219.991913,289.978943 220.597336,289.811279 221.425629,289.360779 
	C222.039383,288.950256 222.391754,288.711884 223.026459,288.304443 
	C224.884689,287.291870 226.615921,286.779785 228.482788,285.746399 
	C229.033203,285.613678 229.262497,285.603821 229.746613,285.825409 
z"/>
<path fill="#FDECDB" opacity="1.000000" stroke="none" 
	d="
M291.089661,310.573059 
	C311.347961,310.090607 331.720428,309.986572 352.546387,309.758698 
	C353.890472,308.944214 354.813690,308.316101 356.267822,308.026459 
	C357.826660,307.791046 359.070679,307.642181 360.560425,307.178192 
	C361.228821,306.982605 361.606995,306.868225 362.253784,306.640869 
	C362.701294,306.454590 362.878906,306.377258 363.321167,306.178467 
	C363.761780,305.972992 363.937744,305.889008 364.379974,305.677429 
	C364.828156,305.469849 365.010132,305.389801 365.473724,305.205658 
	C366.728851,304.813141 367.693207,304.486847 369.022339,304.410217 
	C369.523132,304.520233 369.713440,304.604340 370.052612,304.962769 
	C368.063568,309.513275 360.017822,312.960052 355.155029,312.539154 
	C348.377991,311.952576 341.697296,311.090118 334.709869,311.561127 
	C320.644989,312.509094 306.471466,311.852112 292.342926,311.808746 
	C291.962372,311.807556 291.583527,311.249756 291.089661,310.573059 
z"/>
<path fill="#FDE1CA" opacity="1.000000" stroke="none" 
	d="
M176.151276,207.934341 
	C174.623978,212.217804 174.019928,216.692993 174.052307,221.416321 
	C174.190857,241.632706 174.111359,261.850616 174.013489,282.525391 
	C172.449890,280.307648 172.057648,277.407959 172.059219,274.407715 
	C172.069199,255.451752 172.029739,236.495682 172.092163,217.539917 
	C172.104004,213.945236 172.109772,210.199631 176.151276,207.934341 
z"/>
<path fill="#FDECDB" opacity="1.000000" stroke="none" 
	d="
M387.716217,284.260742 
	C390.860016,279.348145 391.840973,274.169006 391.890167,268.812347 
	C391.987762,258.186493 391.941895,247.559326 392.057800,236.475983 
	C393.589661,237.575882 392.968994,239.492355 392.979034,241.247131 
	C393.037598,251.514465 392.991333,261.782349 393.016479,272.049957 
	C393.024170,275.184998 393.135712,278.229645 391.230957,281.083191 
	C390.403748,282.322510 389.270874,284.296906 392.135834,285.446594 
	C393.475372,285.984100 392.836670,288.864563 392.320435,288.740204 
	C387.039062,287.467804 388.865143,292.951294 386.785980,294.243378 
	C383.847443,296.069489 381.118622,298.013824 378.709259,300.470032 
	C378.417358,300.767609 377.781128,300.727325 376.929047,300.786865 
	C376.124603,299.488525 376.581146,298.359283 377.437347,297.621552 
	C381.703125,293.946228 383.751068,288.595459 387.716217,284.260742 
z"/>
<path fill="#FDECDB" opacity="1.000000" stroke="none" 
	d="
M290.498199,167.053436 
	C290.166382,166.892654 290.188110,166.670761 290.303955,166.597290 
	C294.197144,164.128067 296.888031,157.816406 300.636627,158.308075 
	C304.309479,158.789825 307.338501,164.179626 310.761658,167.727356 
	C309.114441,167.864807 306.920563,166.892883 305.835632,167.065033 
	C303.141266,167.492493 299.382538,160.665421 297.648376,167.994476 
	C297.405426,169.021362 296.258301,168.591507 295.613190,168.028244 
	C294.205017,166.798721 292.547363,166.989685 290.498199,167.053436 
z"/>
<path fill="#F64E0C" opacity="1.000000" stroke="none" 
	d="
M387.639160,283.953430 
	C386.008057,290.596100 381.280273,295.261139 376.659668,300.402344 
	C376.553619,300.730133 376.220673,300.759430 376.116241,300.889893 
	C374.842224,301.977173 373.953552,303.427887 371.829071,302.974121 
	C369.752441,298.529388 371.534760,295.647766 375.284119,293.167694 
	C376.233765,292.574951 376.881073,292.214172 377.782715,291.583374 
	C380.572540,290.677490 381.750549,288.830597 382.661163,286.543335 
	C383.316803,284.896454 383.643341,282.971375 385.654297,281.930603 
	C386.071899,282.890839 386.288208,283.684235 387.639160,283.953430 
z"/>
<path fill="#FDE1CA" opacity="1.000000" stroke="none" 
	d="
M201.318939,93.985397 
	C198.316116,102.753242 196.063721,111.779900 196.473587,121.684502 
	C196.156433,121.945938 195.912521,121.856117 195.903915,121.747604 
	C195.134293,112.063133 193.124283,102.145309 201.318939,93.985397 
z"/>
<path fill="#FDE1CA" opacity="1.000000" stroke="none" 
	d="
M351.295959,177.428497 
	C357.843231,175.481903 364.206360,172.651154 370.550720,168.916092 
	C370.603973,171.296707 367.147614,172.416641 368.515167,175.788162 
	C369.007538,177.002029 366.371368,177.236786 365.418427,176.437531 
	C362.952545,174.369308 360.848785,175.134872 358.722931,176.768845 
	C356.501801,178.476074 354.055389,178.052643 351.295959,177.428497 
z"/>
<path fill="#FDECDB" opacity="1.000000" stroke="none" 
	d="
M371.323395,168.967621 
	C373.668640,166.335449 376.414001,163.735764 379.471893,161.036530 
	C381.399567,161.600754 382.453033,162.832626 383.150116,164.376984 
	C383.690338,165.573685 385.830048,166.617218 384.041382,168.114227 
	C382.114227,169.727142 382.334290,166.961563 381.403961,166.536667 
	C379.546387,165.688278 377.501709,165.317017 376.034760,167.166687 
	C374.858765,168.649521 373.452698,169.077820 371.323395,168.967621 
z"/>
<path fill="#FDECDB" opacity="1.000000" stroke="none" 
	d="
M312.064087,169.322052 
	C317.738800,171.722977 323.247986,174.933151 329.697876,176.869263 
	C326.596283,179.229446 324.049286,176.559280 321.263123,175.496994 
	C320.219513,175.099106 319.236786,173.580444 318.212494,174.110397 
	C313.051178,176.780777 312.881836,172.876663 312.064087,169.322052 
z"/>
<path fill="#FDE1CA" opacity="1.000000" stroke="none" 
	d="
M257.073853,178.448441 
	C264.262787,177.173218 271.524902,176.209808 278.684967,173.202606 
	C278.995178,174.234131 278.980835,175.588455 277.867889,175.697998 
	C272.080627,176.267563 266.774719,178.673065 261.160553,179.841812 
	C259.840210,180.116669 258.140747,180.492874 257.073853,178.448441 
z"/>
<path fill="#FDE1CA" opacity="1.000000" stroke="none" 
	d="
M208.523163,81.955093 
	C206.950134,85.250519 205.009552,88.565414 202.785919,92.026978 
	C199.881973,87.603745 200.247437,86.229431 204.658493,84.905823 
	C206.321243,84.406876 205.944809,81.679840 208.523163,81.955093 
z"/>
<path fill="#FDE1CA" opacity="1.000000" stroke="none" 
	d="
M196.583954,127.296829 
	C197.681076,132.992935 199.982758,138.557495 201.994324,144.597122 
	C196.911301,140.238953 195.536423,134.274567 196.583954,127.296829 
z"/>
<path fill="#FDECDB" opacity="1.000000" stroke="none" 
	d="
M385.520416,102.938232 
	C385.456757,101.474701 384.343323,100.750320 383.944519,99.394318 
	C387.788147,98.786072 391.028229,98.904976 389.244568,104.472443 
	C388.755646,105.998535 390.328247,107.848625 389.789734,110.143875 
	C388.414520,108.097366 387.132690,105.609322 385.520416,102.938232 
z"/>
<path fill="#FEF8F4" opacity="1.000000" stroke="none" 
	d="
M215.863403,73.956482 
	C214.247650,76.256058 212.262192,78.391068 210.007263,80.730629 
	C209.586121,81.050240 209.434418,81.165291 209.124359,81.042694 
	C209.055847,72.611542 209.451599,72.186363 215.863403,73.956482 
z"/>
<path fill="#FDECDB" opacity="1.000000" stroke="none" 
	d="
M387.833344,211.827896 
	C385.495758,209.069260 383.239471,205.923996 380.925323,202.440369 
	C386.830170,202.488327 386.425049,207.679626 387.833344,211.827896 
z"/>
<path fill="#FDE1CA" opacity="1.000000" stroke="none" 
	d="
M280.382141,173.005768 
	C281.850128,170.852753 284.503082,170.044952 287.326294,168.901123 
	C290.043518,170.912125 288.357605,172.029358 286.561584,172.523727 
	C284.736786,173.026031 282.737610,172.894913 280.382141,173.005768 
z"/>
<path fill="#FDECDB" opacity="1.000000" stroke="none" 
	d="
M382.426941,158.027832 
	C383.841919,154.795456 385.622009,151.565979 387.694275,148.160416 
	C388.249634,152.364441 387.159271,156.044724 382.426941,158.027832 
z"/>
<path fill="#FDECDB" opacity="1.000000" stroke="none" 
	d="
M389.578156,144.828644 
	C390.037994,141.530121 390.810547,138.069839 391.791321,134.305023 
	C393.605743,138.012466 392.887238,141.564850 389.578156,144.828644 
z"/>
<path fill="#FDE1CA" opacity="1.000000" stroke="none" 
	d="
M201.996704,145.339676 
	C204.160492,146.536819 204.604019,149.189026 206.092865,151.546356 
	C202.213196,152.507980 201.094574,150.853760 201.996704,145.339676 
z"/>
<path fill="#FDECDB" opacity="1.000000" stroke="none" 
	d="
M272.767456,307.984283 
	C274.126038,309.552460 275.990021,308.852386 277.714661,309.806274 
	C274.283966,311.429138 271.033325,310.560944 268.084778,307.666412 
	C268.051575,307.310486 267.987823,307.025726 268.009399,306.881439 
	C268.208832,306.718872 268.386627,306.700623 268.784698,306.835175 
	C269.307465,307.153290 269.609924,307.318573 270.139252,307.340393 
	C270.776154,307.176727 271.164093,307.259766 271.832336,307.463806 
	C272.324738,307.550171 272.514679,307.619019 272.767456,307.984283 
z"/>
<path fill="#FDECDB" opacity="1.000000" stroke="none" 
	d="
M392.408752,121.702133 
	C391.366821,118.600426 390.581329,115.218658 389.809631,111.423889 
	C392.993317,113.874603 393.243927,117.535156 392.408752,121.702133 
z"/>
<path fill="#FDECDB" opacity="1.000000" stroke="none" 
	d="
M382.870270,96.833084 
	C380.960968,95.305115 379.151337,93.422684 377.285828,91.215637 
	C380.222870,91.644547 384.345306,91.237740 382.870270,96.833084 
z"/>
<path fill="#FDE1CA" opacity="1.000000" stroke="none" 
	d="
M233.221893,174.184387 
	C236.419220,173.927353 239.231461,175.944077 242.721832,176.785034 
	C239.302155,178.063660 236.251495,176.651535 233.221893,174.184387 
z"/>
<path fill="#FDE1CA" opacity="1.000000" stroke="none" 
	d="
M173.804245,285.174286 
	C174.382477,285.300140 174.688736,285.628571 175.159973,286.124908 
	C175.548492,286.305206 175.772034,286.317596 176.247543,286.553650 
	C177.207947,287.966858 177.460602,289.291595 177.615875,290.975861 
	C177.495499,291.522522 177.403854,291.730042 177.009491,292.093079 
	C174.404083,290.532898 172.885620,288.454956 173.804245,285.174286 
z"/>
<path fill="#FDECDB" opacity="1.000000" stroke="none" 
	d="
M377.102325,90.382904 
	C374.835999,89.036057 372.549377,87.331863 370.098969,85.339111 
	C373.776215,84.613274 376.043579,86.436722 377.102325,90.382904 
z"/>
<path fill="#FDECDB" opacity="1.000000" stroke="none" 
	d="
M371.706787,302.728516 
	C373.105927,302.272705 374.232025,301.648376 375.684967,301.022217 
	C376.092316,304.595612 374.022736,305.490234 370.562592,305.169250 
	C370.201447,305.237091 370.054199,305.058807 369.979248,304.970764 
	C369.647888,304.203766 369.906982,303.643127 370.560059,302.913757 
	C371.018036,302.661346 371.225861,302.610687 371.706787,302.728516 
z"/>
<path fill="#FDECDB" opacity="1.000000" stroke="none" 
	d="
M339.062439,178.451721 
	C340.668182,178.002869 342.350006,177.907761 344.451111,177.864960 
	C345.132019,177.794601 345.393677,177.671921 345.900299,177.906860 
	C343.963776,180.440552 341.653870,180.953125 339.062439,178.451721 
z"/>
<path fill="#FDECDB" opacity="1.000000" stroke="none" 
	d="
M389.395264,214.819824 
	C388.676788,214.282745 388.247284,213.589584 387.791809,212.586304 
	C388.705353,211.934952 389.676270,210.572449 390.618896,211.845764 
	C391.388916,212.885910 390.568817,213.902878 389.395264,214.819824 
z"/>
<path fill="#FDE1CA" opacity="1.000000" stroke="none" 
	d="
M181.802246,201.090454 
	C181.044708,202.402374 179.874146,203.663452 178.401123,205.043137 
	C177.761230,202.642761 178.128021,200.685944 181.802246,201.090454 
z"/>
<path fill="#FDECDB" opacity="1.000000" stroke="none" 
	d="
M391.326904,220.756851 
	C390.103119,220.094681 390.141266,218.871124 390.001129,217.354462 
	C392.394165,217.352219 392.170013,218.860291 391.326904,220.756851 
z"/>
<path fill="#FDE1CA" opacity="1.000000" stroke="none" 
	d="
M187.683929,198.008911 
	C186.946915,198.688889 185.830704,199.316208 184.394745,199.999496 
	C184.120667,197.769669 185.864288,198.096161 187.683929,198.008911 
z"/>
<path fill="#FDECDB" opacity="1.000000" stroke="none" 
	d="
M392.419159,125.975464 
	C392.071320,125.562378 392.004761,125.105507 392.043365,124.314758 
	C392.790405,124.065628 393.509674,124.183884 393.527832,124.961288 
	C393.535217,125.278145 392.992737,125.607834 392.419159,125.975464 
z"/>
<path fill="#FDE1CA" opacity="1.000000" stroke="none" 
	d="
M346.430847,178.225693 
	C345.933929,178.202377 345.722565,178.140274 345.190796,177.997711 
	C345.990936,177.743515 347.111481,177.569748 348.556335,177.518921 
	C348.159241,177.823532 347.437836,178.005219 346.430847,178.225693 
z"/>
<path fill="#FDECDB" opacity="1.000000" stroke="none" 
	d="
M392.383484,232.794678 
	C392.086853,232.237915 392.015564,231.490662 392.045990,230.378754 
	C393.080841,230.738693 393.139771,231.618927 392.383484,232.794678 
z"/>
<path fill="#FDECDB" opacity="1.000000" stroke="none" 
	d="
M392.338409,131.800705 
	C392.044830,131.239441 391.981140,130.489578 392.020691,129.374725 
	C393.060455,129.742584 393.135040,130.622589 392.338409,131.800705 
z"/>
<path fill="#FDECDB" opacity="1.000000" stroke="none" 
	d="
M284.207275,310.414490 
	C284.763611,310.124542 285.510437,310.056122 286.620483,310.093811 
	C286.250305,311.107452 285.369415,311.140961 284.207275,310.414490 
z"/>
<path fill="#FDE1CA" opacity="1.000000" stroke="none" 
	d="
M178.043762,293.948456 
	C177.581680,293.635162 177.240021,293.203583 176.802567,292.510254 
	C176.706757,292.248535 176.895645,292.094757 176.989777,292.017456 
	C177.903595,291.772369 178.281281,292.232056 178.446716,293.261139 
	C178.402924,293.591339 178.164215,293.830170 178.043762,293.948456 
z"/>
<path fill="#FDECDB" opacity="1.000000" stroke="none" 
	d="
M383.949341,98.754318 
	C383.554504,98.638741 383.176636,98.202232 382.777283,97.465271 
	C383.463104,97.297791 383.847626,97.738739 383.949341,98.754318 
z"/>
<path fill="#FDE1CA" opacity="1.000000" stroke="none" 
	d="
M190.997620,302.995972 
	C190.661423,303.228943 190.328247,303.466644 189.995056,303.704346 
	C189.913712,303.588379 189.832382,303.472382 189.751053,303.356415 
	C190.019257,303.259491 190.287445,303.162598 190.782883,303.037476 
	C191.010117,303.009277 191.000641,303.000732 190.997620,302.995972 
z"/>
<path fill="#FDECDB" opacity="1.000000" stroke="none" 
	d="
M380.866089,201.888290 
	C380.469208,201.910843 380.024445,201.672501 379.531158,201.176422 
	C379.927826,201.154938 380.373016,201.391159 380.866089,201.888290 
z"/>
<path fill="#FDE1CA" opacity="1.000000" stroke="none" 
	d="
M265.192596,306.253723 
	C265.399872,306.074005 265.761200,306.145020 266.292236,306.442291 
	C266.090149,306.613861 265.718414,306.559174 265.192596,306.253723 
z"/>
<path fill="#FDE1CA" opacity="1.000000" stroke="none" 
	d="
M208.926147,81.071686 
	C208.965973,80.805046 209.352783,80.865601 209.545303,80.900391 
	C209.736420,81.261528 209.606766,81.524681 209.135406,81.800476 
	C208.910065,81.696983 208.898178,81.517647 208.926147,81.071686 
z"/>
<path fill="#FDECDB" opacity="1.000000" stroke="none" 
	d="
M388.243896,147.825607 
	C388.076447,147.609116 388.169891,147.227295 388.509155,146.667755 
	C388.671600,146.880127 388.588196,147.270218 388.243896,147.825607 
z"/>
<path fill="#FDECDB" opacity="1.000000" stroke="none" 
	d="
M311.078186,168.357758 
	C311.333496,168.105530 311.619507,168.235550 311.945251,168.742096 
	C311.700531,168.982971 311.408508,168.856766 311.078186,168.357758 
z"/>
<path fill="#FDE1CA" opacity="1.000000" stroke="none" 
	d="
M248.235275,177.810455 
	C248.312088,177.386612 248.561768,177.344803 248.970413,177.730011 
	C249.087616,177.907684 248.731766,178.023453 248.731766,178.023453 
	C248.731766,178.023453 248.366364,177.943192 248.235275,177.810455 
z"/>
<path fill="#FDECDB" opacity="1.000000" stroke="none" 
	d="
M336.279358,177.822388 
	C336.342743,177.415085 336.577148,177.377121 336.960938,177.774353 
	C337.067993,177.948944 336.736084,178.012283 336.736084,178.012283 
	C336.736084,178.012283 336.408112,177.931122 336.279358,177.822388 
z"/>
<path fill="#FDE1CA" opacity="1.000000" stroke="none" 
	d="
M177.378906,206.060791 
	C177.674942,206.274384 177.607330,206.529495 177.155426,206.809448 
	C176.916550,206.598846 176.997925,206.354858 177.378906,206.060791 
z"/>
<path fill="#FDE1CA" opacity="1.000000" stroke="none" 
	d="
M196.203888,123.864594 
	C196.448837,123.916183 196.601761,124.209480 196.659088,124.742798 
	C196.412949,124.690651 196.262405,124.398483 196.203888,123.864594 
z"/>
<path fill="#FEFCFB" opacity="1.000000" stroke="none" 
	d="
M280.339172,287.883240 
	C279.954498,287.181213 279.705109,287.054596 279.174622,287.122681 
	C278.479736,287.425079 277.973541,287.483185 277.189789,287.055664 
	C276.498322,286.452698 276.062775,286.147522 275.353210,285.846130 
	C273.000397,286.051056 271.665375,284.856110 270.270508,283.120972 
	C263.976410,275.544678 262.481079,267.067291 263.011993,257.790283 
	C263.466675,249.846817 263.259674,241.853607 263.067230,233.889114 
	C262.937012,228.501511 264.520752,223.803024 267.816956,219.239670 
	C268.225372,218.824661 268.378815,218.652390 268.718475,218.188461 
	C268.904694,217.896790 269.004395,217.979309 268.948059,217.947906 
	C269.210938,217.801758 269.465454,217.603821 269.803833,217.127701 
	C270.136200,216.649429 270.367828,216.413055 270.880859,216.135864 
	C271.461670,215.520523 272.096466,215.544037 272.697266,215.022797 
	C272.812134,214.763336 273.013428,214.972855 272.908936,214.872986 
	C276.383087,213.847229 279.354950,210.986343 283.690674,211.263901 
	C284.454865,211.024384 284.900665,210.980286 285.678284,210.997864 
	C305.654114,210.924561 325.298798,211.100525 344.942017,210.940704 
	C347.795563,210.917511 350.446472,212.431351 353.752319,211.706207 
	C354.456451,211.718048 354.730316,211.743896 355.391602,211.864624 
	C357.058319,212.182022 357.836700,213.241348 359.219727,213.923843 
	C359.964264,214.133347 360.367981,214.294006 360.998627,214.702362 
	C361.704285,215.299332 362.129730,215.740021 362.823975,216.333496 
	C363.187225,216.678848 363.321808,216.828171 363.621460,217.228943 
	C364.090851,217.998367 364.371582,218.530273 364.883728,219.280731 
	C365.162903,219.712173 365.263306,219.893951 365.460754,220.374878 
	C366.509552,221.821701 367.002838,223.346420 368.672668,224.346817 
	C369.457611,225.112610 369.762482,225.768219 370.017761,226.866943 
	C370.129303,227.777435 370.131775,228.306305 370.054138,229.245850 
	C369.962616,229.930695 369.911591,230.205078 369.742615,230.884430 
	C369.155823,243.186905 369.403870,255.087067 369.562256,267.392151 
	C369.869751,268.563599 369.964142,269.349518 369.936615,270.515015 
	C369.858215,271.110992 369.806519,271.340729 369.460968,272.165192 
	C368.824524,273.263153 368.452637,273.747864 368.093018,274.564484 
	C367.934265,275.000122 367.872803,275.173218 367.708618,275.598145 
	C367.449524,276.169373 367.287506,276.485840 367.009125,277.035156 
	C366.825684,277.428497 366.751770,277.585480 366.559021,277.973572 
	C366.271759,278.510284 366.106598,278.817627 365.543945,279.842224 
	C365.017731,280.699188 364.892426,280.840790 364.554077,281.178497 
	C364.184418,281.494019 364.027771,281.613403 363.624176,281.902313 
	C362.863068,282.415253 362.345490,282.753723 361.566833,283.301666 
	C361.089020,283.598999 360.887360,283.709106 360.363403,283.962067 
	C357.122742,284.975311 354.704681,286.779907 351.760437,288.513855 
	C349.137634,289.533508 346.799652,289.393036 344.487518,289.395630 
	C325.432434,289.417236 306.377350,289.412018 287.322266,289.400146 
	C285.011322,289.398712 282.658966,289.587646 280.339172,287.883240 
z"/>
<path fill="#FE4A05" opacity="1.000000" stroke="none" 
	d="
M371.982361,302.492310 
	C371.979858,302.897034 371.777435,303.161560 371.611115,303.152618 
	C369.332092,303.696625 367.325287,304.499512 365.356903,306.014465 
	C365.238495,306.356293 365.133026,306.274689 365.199707,306.273376 
	C364.915344,306.202454 364.626740,306.311981 364.193512,306.730225 
	C363.994995,306.884033 363.627655,307.120117 363.409851,307.105316 
	C362.966522,307.193970 362.740967,307.297424 362.152527,307.316956 
	C361.311859,307.082092 360.832886,306.934906 359.988586,306.680725 
	C356.324371,305.883270 352.816254,307.124603 349.309296,305.247437 
	C336.482727,302.937103 323.871552,304.409241 311.308960,304.033142 
	C305.341522,303.854492 299.363922,303.960114 293.391663,304.014618 
	C287.713562,304.066437 281.784973,302.830566 276.959930,307.394836 
	C276.255676,308.061035 274.756836,307.887238 273.227966,308.191406 
	C272.830292,308.280731 272.864136,308.261444 272.859497,308.255737 
	C272.749237,307.897156 272.525696,307.643036 272.114502,307.220642 
	C272.017029,302.331696 272.095001,297.691315 271.970367,293.056396 
	C271.882721,289.797821 272.608612,288.043976 276.152222,290.068573 
	C277.521881,290.851105 278.885132,291.275360 280.667725,290.144714 
	C282.710754,288.489746 284.803986,289.032288 286.746277,289.028259 
	C306.070740,288.988342 325.395355,289.014099 344.719910,288.994171 
	C347.695251,288.991089 350.720184,289.370911 353.527283,287.841949 
	C355.263641,286.896149 356.681519,288.173309 358.224640,288.704742 
	C361.724884,289.910187 362.034821,288.335815 360.716461,285.141724 
	C360.631287,284.424164 360.640900,284.132568 360.885468,283.471710 
	C361.120392,283.102478 361.029785,283.013275 361.057373,283.070557 
	C361.280762,282.842285 361.534088,282.627045 362.083679,282.388855 
	C362.310883,282.281494 362.751373,282.047699 362.951599,281.901154 
	C363.151855,281.754608 363.488556,281.391296 363.602600,281.171417 
	C363.716614,280.951538 363.927185,280.876099 363.956024,280.768036 
	C364.154022,280.615540 364.323212,280.571075 364.461639,280.266022 
	C364.430908,280.005463 364.756256,279.955139 364.919983,279.972168 
	C365.236206,279.867676 365.388672,279.746216 365.824768,279.657471 
	C366.443909,279.840057 366.785400,279.974518 367.379150,279.972839 
	C372.940216,263.569489 370.144287,246.847366 370.103485,229.924561 
	C369.697449,229.100876 369.560028,228.602829 369.524323,227.682312 
	C369.534821,226.251343 369.384155,225.167282 370.652649,224.187134 
	C374.233490,224.744781 378.966980,231.453201 378.974915,235.610397 
	C378.988586,242.742691 377.500946,249.796707 377.920471,256.976257 
	C378.067810,259.497650 378.572052,261.891937 379.036407,264.327728 
	C379.361633,266.033783 380.250732,267.205750 382.094696,266.738464 
	C383.699646,266.331757 383.470184,265.084778 383.430145,263.583344 
	C383.219727,255.690598 381.559387,247.717087 384.769135,239.961655 
	C385.681671,237.756760 384.429657,235.492050 383.766235,233.229782 
	C382.722412,229.670456 381.420288,225.665207 385.679382,223.048431 
	C386.679230,222.434158 388.140106,221.552261 389.279114,223.042450 
	C390.358917,224.455109 389.625366,225.151749 388.364166,226.192886 
	C386.456909,227.767410 386.147827,238.579178 387.982635,241.316849 
	C389.680511,243.850113 390.064453,246.455963 390.019745,249.348755 
	C389.934784,254.844986 390.083527,260.345306 389.967987,265.840424 
	C389.874603,270.281372 391.386078,275.238800 386.252625,278.293518 
	C385.767609,278.582153 386.065460,280.186310 385.998962,281.589233 
	C384.996704,284.342010 383.672607,286.607361 383.082733,289.050018 
	C382.464874,291.608673 380.957092,292.083069 378.399902,291.998810 
	C377.565765,292.421814 377.491302,292.998932 377.161316,293.766174 
	C372.546844,294.979004 371.691376,298.178680 371.982361,302.492310 
z"/>
<path fill="#FF4A03" opacity="1.000000" stroke="none" 
	d="
M175.882263,287.096375 
	C175.555527,286.924927 175.316116,286.652435 175.320526,286.472656 
	C177.995056,283.271149 176.842331,279.506256 176.882889,276.176849 
	C177.122025,256.544556 177.040878,236.907730 176.952286,217.272949 
	C176.940567,214.672180 176.972992,211.633270 179.125290,210.590363 
	C181.785828,209.301193 180.409485,204.865967 183.138489,205.249130 
	C187.297440,205.833023 190.830566,208.896454 193.163177,212.070969 
	C196.639755,216.802353 200.001129,220.357849 206.412292,219.056015 
	C207.676788,218.799255 209.546829,219.101135 209.425110,220.772079 
	C209.294800,222.561188 207.191330,222.214127 205.881378,222.661240 
	C205.750092,222.706055 205.530884,222.647324 205.413818,222.557083 
	C203.059708,220.742126 198.292114,219.814285 197.891052,220.867996 
	C196.530609,224.442459 193.835541,227.541916 193.916504,231.813599 
	C194.152924,244.289078 194.023026,256.772064 193.978577,269.251892 
	C193.970367,271.556793 194.269409,273.869995 193.475906,276.171661 
	C192.781830,278.184998 194.614868,279.123138 195.813446,280.158264 
	C197.280960,281.425598 197.558121,279.985107 198.260986,279.033630 
	C199.442245,277.434509 200.178329,278.931885 200.903412,279.725586 
	C202.819672,281.823181 205.235275,281.264618 207.358047,280.566528 
	C209.476807,279.869781 208.899460,278.028534 208.287933,276.357513 
	C207.898605,275.293671 208.419830,274.613159 209.463821,274.008392 
	C213.113800,271.894073 222.089844,273.106842 224.982956,276.043762 
	C226.110489,277.188354 225.798630,278.455841 226.039673,279.715118 
	C226.579468,282.535156 227.584167,284.452240 230.372452,281.353943 
	C231.966431,279.582703 233.630219,279.718048 236.368515,280.999725 
	C233.440292,282.194031 230.682297,282.442657 230.034546,285.691833 
	C230.001434,286.056885 229.676147,286.411072 229.446686,286.482971 
	C226.711929,285.908203 225.016251,287.323700 223.262756,289.169647 
	C223.021698,289.763367 222.802231,289.939301 222.285980,290.024292 
	C221.590851,290.441132 220.971603,290.466461 220.190613,290.848999 
	C219.972824,291.053589 219.796631,291.252014 219.671173,291.208801 
	C219.066559,291.241119 218.523987,291.551544 218.131317,291.423431 
	C212.750900,289.667572 209.404510,291.879822 207.262985,297.138062 
	C206.747177,297.715790 206.371719,297.965302 205.764725,298.202240 
	C198.920471,301.020721 192.268494,297.432526 185.255127,298.288330 
	C184.866425,298.265289 184.867310,298.195099 184.833710,298.205261 
	C183.844803,296.707947 182.783020,295.306335 180.794739,294.601562 
	C180.475647,294.694244 180.517258,294.626251 180.495026,294.593170 
	C179.712814,291.742676 177.016968,290.057159 175.882263,287.096375 
z"/>
<path fill="#FEF8F4" opacity="1.000000" stroke="none" 
	d="
M220.982880,233.029785 
	C226.672501,235.865662 231.937561,238.743103 237.411255,241.145111 
	C242.654694,243.446060 240.322876,247.834732 240.760956,251.473679 
	C241.101883,254.305695 240.517624,256.217316 237.377914,257.697479 
	C226.869553,262.651459 216.684250,268.287262 206.213760,273.326416 
	C199.693726,276.464325 196.302811,274.146149 196.274765,267.015167 
	C196.230286,255.703232 196.225754,244.390762 196.283707,233.078918 
	C196.326675,224.694351 199.870682,222.479446 207.288086,226.132568 
	C211.761765,228.335861 216.197006,230.617233 220.982880,233.029785 
z"/>
<path fill="#F64E0C" opacity="1.000000" stroke="none" 
	d="
M360.819519,283.814758 
	C361.466370,284.555878 361.831085,285.104675 362.080780,285.701599 
	C362.690063,287.158020 366.463684,287.710480 363.695068,290.061401 
	C361.660828,291.788788 358.792297,291.727814 356.855469,289.980225 
	C355.331543,288.605164 354.500031,288.143402 352.761383,289.418152 
	C351.202148,290.561371 349.200958,289.981445 347.397552,289.983826 
	C325.577423,290.012756 303.757294,290.002899 281.468445,290.002167 
	C280.733856,289.375885 280.467957,288.750519 280.167694,287.786041 
	C304.158142,287.943329 328.182556,288.300781 352.598877,287.124115 
	C355.405426,285.684235 357.977509,284.736450 360.819519,283.814758 
z"/>
<path fill="#FDE1CA" opacity="1.000000" stroke="none" 
	d="
M356.101074,212.558548 
	C332.957764,210.688232 309.754272,212.870789 286.313293,211.342758 
	C293.410797,209.964905 300.855804,210.642075 308.278534,210.557632 
	C320.196960,210.422043 332.117737,210.496033 344.494446,210.378357 
	C345.134064,210.059113 345.316833,209.842987 345.774414,209.950531 
	C347.784637,210.475113 349.520081,210.676025 351.627747,210.828613 
	C353.832611,209.871628 355.036926,210.843323 356.101074,212.558548 
z"/>
<path fill="#F64E0C" opacity="1.000000" stroke="none" 
	d="
M361.282227,215.928482 
	C361.050812,215.341385 360.829315,215.144196 360.276184,215.015701 
	C359.683105,214.727386 359.338470,214.459930 359.040192,213.556931 
	C364.405487,212.871094 364.876251,213.293549 365.996490,219.526031 
	C365.854889,220.089706 365.707123,220.296097 365.327820,220.200272 
	C365.096283,219.898041 364.997894,219.995071 365.050049,219.950378 
	C364.178436,219.359512 363.887360,218.365250 363.187134,217.302032 
	C362.970612,217.096619 362.953094,217.017517 362.915222,217.031952 
	C362.546631,216.481415 361.881866,216.498428 361.282227,215.928482 
z"/>
<path fill="#FDE1CA" opacity="1.000000" stroke="none" 
	d="
M283.604950,210.960968 
	C280.534271,212.341675 277.059479,213.614868 273.194580,214.830582 
	C275.647156,211.814758 279.292419,210.985153 283.604950,210.960968 
z"/>
<path fill="#F64E0C" opacity="1.000000" stroke="none" 
	d="
M356.301392,212.994278 
	C355.361023,211.546844 353.839386,211.571594 352.318970,210.903320 
	C354.089172,208.963882 357.059052,209.600494 359.036926,212.617554 
	C359.062805,212.951965 358.964447,213.052032 358.917419,213.104080 
	C358.484100,213.440140 358.052826,213.554596 357.268066,213.338425 
	C356.959534,213.177460 356.526917,213.030579 356.301392,212.994278 
z"/>
<path fill="#F64E0C" opacity="1.000000" stroke="none" 
	d="
M270.049500,283.255127 
	C272.019806,282.902985 272.999023,284.782501 274.888214,285.581329 
	C272.258789,287.747864 270.131165,288.045715 270.049500,283.255127 
z"/>
<path fill="#F64E0C" opacity="1.000000" stroke="none" 
	d="
M366.745575,221.344711 
	C367.158600,219.773224 367.331635,218.510452 368.641388,217.825150 
	C369.570465,219.528549 368.338562,220.885117 367.947449,222.728424 
	C366.858154,223.162720 366.584076,222.531342 366.745575,221.344711 
z"/>
<path fill="#FDE1CA" opacity="1.000000" stroke="none" 
	d="
M366.705750,220.908279 
	C367.081696,221.602081 367.219330,222.190659 367.618713,222.933167 
	C367.880463,223.087112 367.903839,223.056808 367.901978,223.067230 
	C368.298523,223.386246 368.481567,223.797333 368.308655,224.610870 
	C366.039001,224.247574 365.682922,222.341507 365.093079,220.250244 
	C365.096283,219.898041 365.550049,219.914108 365.776306,219.898712 
	C366.157562,220.189896 366.312531,220.496475 366.705750,220.908279 
z"/>
<path fill="#F64E0C" opacity="1.000000" stroke="none" 
	d="
M368.352783,225.131271 
	C368.085754,224.515717 368.034180,224.105972 367.941345,223.386932 
	C368.731689,223.299133 369.563263,223.520615 370.697449,223.871811 
	C370.684509,224.788834 370.368958,225.576111 370.022888,226.681824 
	C369.860474,227.161118 369.728516,227.321976 369.397858,227.242218 
	C368.988831,226.446747 368.778503,225.891907 368.352783,225.131271 
z"/>
<path fill="#F64E0C" opacity="1.000000" stroke="none" 
	d="
M271.609863,307.020081 
	C272.276978,307.217163 272.528351,307.464600 272.817261,307.981018 
	C272.164764,308.095062 271.474701,307.940155 270.575378,307.491028 
	C270.642120,307.154724 270.918121,307.112549 271.609863,307.020081 
z"/>
<path fill="#F64E0C" opacity="1.000000" stroke="none" 
	d="
M277.051544,287.011841 
	C277.398010,286.799133 277.862152,286.840454 278.645203,287.030029 
	C278.397705,287.860840 277.804321,287.990967 277.051544,287.011841 
z"/>
<path fill="#FDE1CA" opacity="1.000000" stroke="none" 
	d="
M272.523376,214.804611 
	C272.448975,215.184189 272.085785,215.605042 271.418518,216.037018 
	C271.487793,215.647385 271.861206,215.246628 272.523376,214.804611 
z"/>
<path fill="#F64E0C" opacity="1.000000" stroke="none" 
	d="
M268.935608,306.825500 
	C268.830200,306.993256 268.655396,306.998505 268.255798,306.870483 
	C268.309418,306.712433 268.587860,306.687714 268.935608,306.825500 
z"/>
<path fill="#FDE1CA" opacity="1.000000" stroke="none" 
	d="
M269.675049,216.960693 
	C269.763550,217.210449 269.574707,217.488205 269.138763,217.841232 
	C269.060364,217.607239 269.229034,217.297974 269.675049,216.960693 
z"/>
<path fill="#F64E0C" opacity="1.000000" stroke="none" 
	d="
M345.960693,210.059998 
	C345.866302,210.321198 345.683441,210.368195 345.225952,210.345215 
	C345.147675,209.894852 345.244537,209.301147 345.960693,210.059998 
z"/>
<path fill="#FDE1CA" opacity="1.000000" stroke="none" 
	d="
M268.668579,217.992126 
	C268.780701,218.195480 268.656677,218.494156 268.302307,218.894882 
	C268.192108,218.693771 268.312286,218.390610 268.668579,217.992126 
z"/>
<path fill="#FE4A05" opacity="1.000000" stroke="none" 
	d="
M304.710571,159.358368 
	C305.392029,157.640442 304.472351,155.533646 304.289276,153.768738 
	C303.906433,150.077133 299.992432,152.213089 297.778595,151.427826 
	C295.539337,150.633530 296.199768,153.132904 296.705811,154.474869 
	C297.534027,156.671082 296.130737,157.890015 294.823334,159.180344 
	C293.829315,160.161346 292.473969,160.456955 291.807831,162.168640 
	C290.749847,164.887238 287.131165,164.824432 286.326294,162.056229 
	C284.872070,157.054916 282.524017,157.572144 279.047058,159.885376 
	C277.768280,160.736145 276.078461,163.342163 274.521515,161.068497 
	C273.258514,159.224121 273.321930,156.464584 275.977966,155.056274 
	C279.213959,153.340408 280.369110,149.430542 284.064362,147.970551 
	C285.792084,147.287918 285.294830,144.784637 283.304230,143.170883 
	C282.659851,142.620850 282.502472,142.176331 282.598816,141.331360 
	C282.890137,140.823013 283.070435,140.661575 283.586548,140.364777 
	C284.390503,140.143265 284.862183,140.104355 285.680634,140.147888 
	C290.631775,140.082123 289.729370,137.014771 289.168457,133.836777 
	C288.635254,131.463699 289.002014,129.525726 289.856018,127.268661 
	C290.213226,126.185539 290.548584,125.489601 290.588928,124.317108 
	C290.722748,119.630440 290.501678,115.332535 290.796509,110.664948 
	C291.988831,106.831360 291.651855,103.882851 287.709351,101.883347 
	C286.156158,100.767509 285.696381,99.395531 285.255005,97.632660 
	C285.146301,96.278427 285.432404,95.390457 286.093445,94.617805 
	C287.035614,93.516556 288.374542,92.208572 287.032043,90.884575 
	C285.602173,89.474380 284.527802,91.485451 282.981567,92.095619 
	C282.030029,92.454544 281.391144,92.431763 280.506104,91.974884 
	C279.723724,91.850586 280.400909,90.528381 279.169647,91.227402 
	C278.707123,91.389236 278.508575,91.410156 278.021149,91.352600 
	C277.390808,91.074425 277.072510,90.843315 276.574890,90.374695 
	C275.830841,89.629662 275.214661,89.217140 274.175659,88.960960 
	C273.701813,88.821129 273.512848,88.755852 273.052368,88.552429 
	C272.617432,88.289696 272.454010,88.165115 272.078918,87.813858 
	C271.757202,87.411530 271.647217,87.235901 271.435211,86.767014 
	C271.258484,86.066528 271.199677,85.657005 271.085144,84.947792 
	C268.350494,83.331131 265.758453,81.428207 262.309387,83.746941 
	C255.834625,83.030029 249.757599,83.196999 243.395874,84.302444 
	C238.475769,79.612274 237.067444,73.707504 236.168777,67.776703 
	C235.775345,65.180283 238.608093,64.558304 240.708664,64.039154 
	C253.082870,60.980946 265.279877,61.411999 277.226379,66.061966 
	C277.946594,66.342293 278.768616,66.817207 279.146851,67.441666 
	C280.869751,70.286079 282.164246,73.123161 286.675110,71.571716 
	C288.511108,70.940231 289.135559,73.995300 289.595703,75.569092 
	C290.140656,77.432961 290.730438,78.811913 292.613281,79.660851 
	C295.294922,80.869949 297.950958,82.209511 297.105072,86.069496 
	C296.864014,87.169540 297.882019,87.644791 298.947083,87.992226 
	C302.125122,89.028946 305.524994,89.456902 306.732391,93.709465 
	C307.357819,95.912254 315.377655,95.735680 316.507111,93.456444 
	C317.699585,91.050041 320.571960,89.632133 320.241974,86.217659 
	C320.040985,84.137955 321.888367,82.393150 324.033722,82.206024 
	C333.023285,81.421951 341.881927,78.870461 351.015350,80.016953 
	C356.771606,80.739525 361.467651,84.153297 366.588287,86.459839 
	C368.401245,87.276459 368.173065,89.189995 367.551361,90.869240 
	C365.823181,95.537376 368.309723,97.694710 372.348145,98.904755 
	C373.136993,99.141121 374.048309,99.086342 374.757477,99.449936 
	C377.221283,100.713051 379.629120,102.124954 379.551239,95.950340 
	C381.495392,99.379242 381.261108,102.553162 384.818939,102.806870 
	C385.189972,102.755180 385.051239,102.931786 385.144684,102.867035 
	C384.859772,108.789932 384.264832,114.809410 389.365753,119.472824 
	C390.289215,120.317085 390.400360,121.931183 389.877655,122.771950 
	C387.184723,127.103485 388.037292,132.430527 385.748230,136.802582 
	C384.651215,138.897766 384.967468,141.044037 385.044464,143.152756 
	C385.250916,148.806595 384.026306,153.621811 378.305603,156.121017 
	C376.898071,156.735916 377.565491,157.645050 377.680298,158.590271 
	C377.817719,159.721634 377.119690,160.884262 376.076782,160.621399 
	C369.923279,159.070480 367.594696,164.180817 364.170563,167.302765 
	C362.218719,169.082336 360.685974,171.634827 357.546082,170.962555 
	C354.177185,170.241241 352.915070,173.640671 350.228668,174.525040 
	C347.849457,175.308289 345.630249,175.996094 343.162567,175.992798 
	C338.232788,175.986221 334.940552,172.258423 335.472870,167.155930 
	C335.589600,166.036835 336.488312,164.572418 334.806732,164.315811 
	C332.559845,163.972961 333.520721,165.772247 333.332062,166.997574 
	C332.673950,171.271973 329.512695,172.894257 325.238556,172.285355 
	C318.456726,171.319244 313.248749,167.037125 310.135559,162.116959 
	C308.365570,159.319672 308.286407,157.993027 304.764191,159.408600 
	C304.596527,159.413971 304.819794,159.289413 304.710571,159.358368 
z"/>
<path fill="#FEFBF9" opacity="1.000000" stroke="none" 
	d="
M276.723389,90.089149 
	C276.899506,90.674210 277.067902,90.871338 277.474762,91.098114 
	C285.698364,96.371086 289.730316,104.089531 290.866089,113.286797 
	C291.830170,121.093979 290.566864,128.739899 287.394836,136.400467 
	C287.170837,136.987854 287.070251,137.215546 286.782440,137.759857 
	C285.878571,139.024017 285.005859,139.818085 283.769714,140.602615 
	C283.423004,140.609589 283.143097,140.792892 283.088074,140.950867 
	C281.555817,143.298264 280.087067,145.496246 277.266113,146.798035 
	C277.015625,147.011780 277.000000,146.999390 277.005005,147.007263 
	C269.152924,154.086426 259.656342,155.102402 249.369537,154.148224 
	C248.239990,153.609802 247.438141,153.333267 246.309387,153.070862 
	C244.030960,152.977097 242.097137,152.809479 240.255600,151.206360 
	C239.997330,150.951492 239.817780,150.728775 239.674759,150.730804 
	C237.995865,150.330872 236.825882,149.264740 235.227753,148.295441 
	C234.968277,148.086151 234.847870,147.812897 234.702850,147.777374 
	C234.091949,147.791611 233.695862,147.648361 233.253662,146.998093 
	C233.137787,146.684006 232.949280,146.270798 232.765686,146.137177 
	C232.557877,145.835831 232.533676,145.668106 232.257034,145.470596 
	C232.004593,145.440811 231.662003,145.085785 231.430420,145.000824 
	C230.879059,144.761185 230.592514,144.559357 230.225998,144.070999 
	C230.112854,143.831589 230.062759,143.953094 230.113327,143.911133 
	C229.447525,143.499771 228.960129,142.878326 228.345703,142.018188 
	C228.256546,141.737823 228.054108,142.018265 228.162323,141.882568 
	C226.661957,140.800919 225.782013,139.359329 225.167419,137.358398 
	C224.910507,137.154282 224.953262,137.079941 224.910706,137.074783 
	C219.425278,130.082977 219.667755,121.950218 220.280838,113.342834 
	C220.535599,112.516838 220.679764,112.113060 220.806763,111.382744 
	C220.531158,108.656799 221.789246,106.677788 222.831940,104.280678 
	C223.076599,103.990112 223.285446,103.797737 223.274536,103.656174 
	C223.217163,103.103149 223.323227,102.735725 223.796371,102.203293 
	C224.010910,101.994263 224.238480,101.775917 224.238892,101.618225 
	C225.856201,98.425865 227.514496,95.423309 230.748474,93.222885 
	C231.027969,93.020035 230.999390,93.000122 231.009155,93.014694 
	C232.270752,91.756714 233.473419,90.431786 235.254303,89.339996 
	C235.587677,89.312241 235.846008,89.301926 235.922180,89.197464 
	C237.200104,87.663750 238.942596,87.150032 240.862305,86.290970 
	C241.175858,86.176414 241.060074,86.089638 241.091705,86.154694 
	C251.210648,81.425751 261.234192,81.969025 271.473602,86.927444 
	C271.738068,87.275673 271.757263,87.232758 271.756683,87.245934 
	C272.111359,87.262428 272.407135,87.396729 272.798645,87.865379 
	C272.953918,88.068642 273.000488,88.002754 272.970581,88.029671 
	C274.018066,88.975075 275.597076,88.794014 276.723389,90.089149 
z"/>
<path fill="#EB6535" opacity="1.000000" stroke="none" 
	d="
M271.805725,86.914627 
	C261.932526,83.325478 252.019623,82.349724 241.527924,86.209686 
	C241.644913,85.657074 242.166473,85.094391 242.877228,84.297539 
	C249.297668,81.536797 255.673508,81.408630 262.566956,82.913773 
	C266.158722,81.338074 268.538971,84.055298 271.599182,84.771927 
	C271.859100,85.575424 271.866241,86.064507 271.805725,86.914627 
z"/>
<path fill="#EB6535" opacity="1.000000" stroke="none" 
	d="
M249.178375,154.219330 
	C258.852936,154.537003 268.194153,153.293381 276.661560,147.068573 
	C276.133575,150.620346 272.855621,151.540359 270.115265,152.758041 
	C264.012970,155.469635 257.361267,155.243881 250.860291,155.673599 
	C250.371994,155.705872 249.831253,154.944672 249.178375,154.219330 
z"/>
<path fill="#EB6535" opacity="1.000000" stroke="none" 
	d="
M220.057770,113.092712 
	C220.196854,121.040924 220.446259,129.077469 224.838715,136.703781 
	C223.876862,136.988327 222.684830,137.051163 222.285690,135.954956 
	C219.609833,128.605743 217.611481,121.161705 220.057770,113.092712 
z"/>
<path fill="#EB6535" opacity="1.000000" stroke="none" 
	d="
M230.656342,93.003265 
	C228.976746,95.744392 226.925522,98.468750 224.556808,101.326828 
	C224.832947,97.621765 226.165344,94.310013 230.656342,93.003265 
z"/>
<path fill="#EB6535" opacity="1.000000" stroke="none" 
	d="
M277.371887,147.028412 
	C278.823669,145.131226 280.631744,143.250687 282.736420,141.239502 
	C283.029144,141.529587 283.025269,141.950302 283.002960,142.686829 
	C281.646912,144.889084 280.388733,146.878799 277.371887,147.028412 
z"/>
<path fill="#EB6535" opacity="1.000000" stroke="none" 
	d="
M240.038391,151.315491 
	C241.810699,151.516708 243.624054,152.081940 245.709961,152.866074 
	C243.575470,154.461792 241.448013,154.664291 240.038391,151.315491 
z"/>
<path fill="#EB6535" opacity="1.000000" stroke="none" 
	d="
M222.764893,104.135643 
	C222.435287,106.128723 221.793976,108.267334 220.971146,110.731079 
	C218.869308,108.190186 220.874039,106.287933 222.764893,104.135643 
z"/>
<path fill="#EB6535" opacity="1.000000" stroke="none" 
	d="
M235.209229,89.237228 
	C234.282089,90.508224 232.976501,91.704208 231.344910,92.964722 
	C231.266922,90.732216 232.557556,89.462936 235.209229,89.237228 
z"/>
<path fill="#EB6535" opacity="1.000000" stroke="none" 
	d="
M240.796783,86.113831 
	C239.679169,87.133636 238.182495,88.090858 236.342072,89.070541 
	C236.378021,86.490417 238.378143,86.242157 240.796783,86.113831 
z"/>
<path fill="#EB6535" opacity="1.000000" stroke="none" 
	d="
M224.915070,137.519669 
	C225.975830,138.477997 227.041138,139.801712 228.188507,141.436142 
	C225.442856,141.944000 225.493088,139.643936 224.915070,137.519669 
z"/>
<path fill="#EB6535" opacity="1.000000" stroke="none" 
	d="
M235.022919,148.442062 
	C236.644073,148.217667 237.835068,149.335968 239.353027,150.442657 
	C237.633179,151.040558 236.139603,150.415970 235.022919,148.442062 
z"/>
<path fill="#EB6535" opacity="1.000000" stroke="none" 
	d="
M228.208038,142.089401 
	C228.847107,142.252747 229.437668,142.767654 230.096069,143.575867 
	C229.119003,143.921875 228.300919,143.656281 228.208038,142.089401 
z"/>
<path fill="#EB6535" opacity="1.000000" stroke="none" 
	d="
M232.050232,145.578918 
	C232.277863,145.310226 232.487823,145.377319 232.608292,145.822815 
	C232.373093,145.987656 232.211029,145.892151 232.050232,145.578918 
z"/>
<path fill="#EB6535" opacity="1.000000" stroke="none" 
	d="
M233.250122,146.995422 
	C233.517624,146.846863 233.897446,147.009720 234.417557,147.457214 
	C234.159378,147.596832 233.760925,147.451828 233.250122,146.995422 
z"/>
<path fill="#EB6535" opacity="1.000000" stroke="none" 
	d="
M230.180099,144.106720 
	C230.422226,144.014587 230.731583,144.197586 231.119888,144.648224 
	C230.881668,144.737854 230.564499,144.559860 230.180099,144.106720 
z"/>
<path fill="#FDECDB" opacity="1.000000" stroke="none" 
	d="
M304.433655,159.381561 
	C304.373260,159.538513 304.417145,159.547760 304.397644,159.549820 
	C304.378113,159.551880 304.494080,159.224609 304.433655,159.381561 
z"/>
<path fill="#EB6535" opacity="1.000000" stroke="none" 
	d="
M223.755005,102.167252 
	C223.930740,102.383415 223.850555,102.772568 223.516998,103.338165 
	C223.342117,103.123154 223.420609,102.731705 223.755005,102.167252 
z"/>
<path fill="#F94D0F" opacity="1.000000" stroke="none" 
	d="
M349.008240,305.369812 
	C352.804413,305.227020 356.641449,304.516937 360.712524,305.698395 
	C360.066406,307.199707 358.648773,307.759796 357.219971,308.835449 
	C355.878235,309.274170 354.776215,309.504578 353.337036,309.684937 
	C352.861847,307.119659 348.551361,308.865967 349.008240,305.369812 
z"/>
<path fill="#F94D0F" opacity="1.000000" stroke="none" 
	d="
M185.062592,298.571594 
	C186.856110,296.621613 189.243484,296.938293 191.530075,297.025452 
	C195.963181,297.194458 200.268646,299.029480 205.164673,298.127289 
	C198.919464,302.673645 192.134140,302.102142 185.062592,298.571594 
z"/>
<path fill="#F94D0F" opacity="1.000000" stroke="none" 
	d="
M207.491394,297.414490 
	C207.405807,296.357574 207.732986,295.258026 207.964569,294.138702 
	C209.008621,289.092682 211.224335,288.019958 215.895248,290.249359 
	C216.757980,290.661133 217.750183,290.801605 219.114166,291.116455 
	C216.054199,293.992493 211.728363,295.246124 207.491394,297.414490 
z"/>
<path fill="#F94D0F" opacity="1.000000" stroke="none" 
	d="
M175.532288,287.312439 
	C178.162338,288.514801 180.624573,290.212128 180.548004,294.150604 
	C179.962097,294.321136 179.451401,294.082184 178.671814,293.717285 
	C178.096420,293.160583 177.789917,292.729828 177.283661,292.119629 
	C176.558960,290.526764 176.034012,289.113342 175.532288,287.312439 
z"/>
<path fill="#F94D0F" opacity="1.000000" stroke="none" 
	d="
M223.509659,289.440674 
	C223.961823,286.542267 225.340881,284.510132 229.043167,286.213562 
	C227.431107,287.501434 225.644974,288.447968 223.509659,289.440674 
z"/>
<path fill="#F94D0F" opacity="1.000000" stroke="none" 
	d="
M180.517914,295.003296 
	C183.486374,293.121735 184.277542,295.119110 184.837219,297.822266 
	C182.909424,297.944946 181.727997,296.638611 180.517914,295.003296 
z"/>
<path fill="#F94D0F" opacity="1.000000" stroke="none" 
	d="
M220.283493,291.046021 
	C220.462463,290.715118 220.952087,290.376648 221.755768,290.036072 
	C221.577942,290.368805 221.086060,290.703613 220.283493,291.046021 
z"/>
<path fill="#F64E0C" opacity="1.000000" stroke="none" 
	d="
M365.588684,306.339844 
	C365.870178,303.362671 368.017426,302.841248 371.031189,303.101196 
	C371.042175,303.562958 370.639557,303.982239 370.070618,304.642151 
	C368.582458,305.362976 367.260651,305.843201 365.588684,306.339844 
z"/>
<path fill="#F64E0C" opacity="1.000000" stroke="none" 
	d="
M357.357605,309.076782 
	C357.728912,307.640869 358.144470,305.873993 360.650574,305.999603 
	C361.329529,306.093292 361.605682,306.272766 361.966370,306.740173 
	C362.205627,307.095032 362.309387,307.240356 362.210510,307.560791 
	C360.583557,308.193878 359.159241,308.651825 357.357605,309.076782 
z"/>
<path fill="#F64E0C" opacity="1.000000" stroke="none" 
	d="
M364.261719,306.922363 
	C364.246826,306.666779 364.498657,306.449524 365.008423,306.252167 
	C365.020355,306.501587 364.774384,306.731140 364.261719,306.922363 
z"/>
<path fill="#F94D0F" opacity="1.000000" stroke="none" 
	d="
M362.263306,307.772522 
	C362.007904,307.735901 362.027863,307.340515 362.064880,307.145142 
	C362.284027,306.967926 362.466217,306.986115 362.920227,307.047424 
	C362.967590,307.330048 362.743134,307.569580 362.263306,307.772522 
z"/>
<path fill="#F94D0F" opacity="1.000000" stroke="none" 
	d="
M377.233978,293.828735 
	C377.157867,293.435791 377.332520,292.882050 377.754730,292.164276 
	C377.829773,292.556152 377.657257,293.112030 377.233978,293.828735 
z"/>
<path fill="#F64E0C" opacity="1.000000" stroke="none" 
	d="
M366.242920,280.294952 
	C365.975555,280.088562 365.528107,280.051392 365.305908,280.020264 
	C365.052704,279.819977 365.021637,279.650787 365.005737,279.223999 
	C365.173157,278.828766 365.325378,278.691071 365.606873,278.273987 
	C365.736176,277.994568 365.995392,277.608795 366.048462,277.382538 
	C366.222351,276.960083 366.343140,276.763916 366.652405,276.278046 
	C366.840881,275.988373 366.994354,275.555054 367.033875,275.328644 
	C367.438934,274.603973 367.501923,273.983551 368.029999,273.333862 
	C368.314178,273.231567 368.081848,272.991577 368.193359,273.112244 
	C368.356201,273.018127 368.407532,272.803375 368.614624,272.296326 
	C368.887024,271.261841 369.003693,270.519653 369.124084,269.400330 
	C368.836792,256.325531 369.095917,243.625977 368.986816,230.463120 
	C368.989624,229.825073 368.999634,229.651581 369.113556,229.239059 
	C369.345642,228.825592 369.473816,228.651154 369.810059,228.725967 
	C372.468353,229.363632 371.983551,231.286346 371.986786,232.871323 
	C372.010986,244.692825 372.194305,256.519135 371.907013,268.333679 
	C371.788269,273.217560 369.128723,277.693237 368.615173,282.681580 
	C368.428375,284.496063 367.202698,282.819611 366.995300,281.345337 
	C366.824677,280.823853 366.667511,280.662598 366.242920,280.294952 
z"/>
<path fill="#FDE1CA" opacity="1.000000" stroke="none" 
	d="
M368.698273,230.304001 
	C370.537689,232.585052 369.844025,235.453186 369.856659,238.181366 
	C369.903320,248.257660 369.765686,258.334808 369.412537,268.717407 
	C368.778961,268.309174 368.124023,267.593994 368.126862,266.881409 
	C368.175140,254.790558 368.305054,242.700043 368.698273,230.304001 
z"/>
<path fill="#FDE1CA" opacity="1.000000" stroke="none" 
	d="
M361.153442,283.764221 
	C358.696899,285.043396 356.491364,286.707062 353.368774,287.028473 
	C354.825256,284.506256 357.510498,283.605835 360.743103,283.061768 
	C361.120392,283.102478 361.152863,283.543213 361.153442,283.764221 
z"/>
<path fill="#FDE1CA" opacity="1.000000" stroke="none" 
	d="
M357.036591,213.507538 
	C357.382172,213.157104 357.804840,213.136749 358.548920,213.136246 
	C359.200256,213.587189 359.530151,214.018265 359.955811,214.706726 
	C358.912018,215.006531 357.731476,215.155838 357.036591,213.507538 
z"/>
<path fill="#FDE1CA" opacity="1.000000" stroke="none" 
	d="
M362.977509,217.446136 
	C364.166779,217.336319 364.744202,218.172836 365.080872,219.583923 
	C363.628662,219.972748 363.051880,219.139801 362.977509,217.446136 
z"/>
<path fill="#FDE1CA" opacity="1.000000" stroke="none" 
	d="
M363.408691,280.974426 
	C363.716614,280.951538 363.821716,281.279663 363.849670,281.449646 
	C363.756165,282.053192 363.525482,282.417633 362.865509,282.797485 
	C362.206421,282.893219 361.885986,282.976166 361.334564,283.129333 
	C361.287933,281.973907 362.077637,281.375153 363.408691,280.974426 
z"/>
<path fill="#FDE1CA" opacity="1.000000" stroke="none" 
	d="
M368.000580,273.303894 
	C368.092926,273.779175 367.871643,274.326752 367.361877,274.988281 
	C367.277924,274.526886 367.482452,273.951569 368.000580,273.303894 
z"/>
<path fill="#F94D0F" opacity="1.000000" stroke="none" 
	d="
M370.014221,228.646347 
	C370.018127,228.975220 369.617737,228.995636 369.417603,228.997833 
	C369.167236,228.554626 369.116974,228.109238 369.132935,227.332718 
	C369.199127,227.001587 369.595947,227.000351 369.794159,227.000305 
	C369.998352,227.439346 370.004303,227.878403 370.014221,228.646347 
z"/>
<path fill="#FDE1CA" opacity="1.000000" stroke="none" 
	d="
M361.209290,215.974030 
	C361.639557,215.957199 362.113892,216.255554 362.732819,216.800156 
	C362.336029,216.793991 361.794678,216.541611 361.209290,215.974030 
z"/>
<path fill="#FDE1CA" opacity="1.000000" stroke="none" 
	d="
M368.572174,272.150146 
	C368.758789,272.324341 368.747253,272.644623 368.520294,273.098938 
	C368.127472,272.905823 368.150543,272.593628 368.572174,272.150146 
z"/>
<path fill="#FDE1CA" opacity="1.000000" stroke="none" 
	d="
M366.633240,276.121887 
	C366.762146,276.309814 366.683441,276.631287 366.353149,277.054504 
	C366.060425,276.802307 366.168457,276.502014 366.633240,276.121887 
z"/>
<path fill="#FDE1CA" opacity="1.000000" stroke="none" 
	d="
M365.534302,278.084442 
	C365.841766,278.336121 365.749481,278.611267 365.240112,278.893188 
	C364.979187,278.645142 365.083038,278.381104 365.534302,278.084442 
z"/>
<path fill="#FDE1CA" opacity="1.000000" stroke="none" 
	d="
M364.296509,280.064087 
	C364.619141,280.244080 364.586395,280.446899 364.158752,280.636963 
	C363.945618,280.448395 364.004730,280.269318 364.296509,280.064087 
z"/>
<path fill="#F64E0C" opacity="1.000000" stroke="none" 
	d="
M377.754578,271.882446 
	C376.530609,273.194214 375.622864,273.061371 375.172150,271.590454 
	C374.940765,270.835388 374.936249,269.783966 375.829956,269.567627 
	C377.303009,269.211121 377.692719,270.351990 377.754578,271.882446 
z"/>
<path fill="#F94D0F" opacity="1.000000" stroke="none" 
	d="
M366.096313,280.285797 
	C366.308197,280.132690 366.573822,280.290009 366.877136,280.772827 
	C366.675995,280.895294 366.421051,280.727936 366.096313,280.285797 
z"/>
<path fill="#F64E0C" opacity="1.000000" stroke="none" 
	d="
M362.873718,282.804108 
	C362.803467,282.559174 363.061493,282.236298 363.598572,281.766541 
	C363.652466,281.988495 363.427246,282.357330 362.873718,282.804108 
z"/>
<path fill="#FEFBF9" opacity="1.000000" stroke="none" 
	d="
M335.323914,153.692566 
	C334.543945,153.328781 334.113617,153.179199 333.339417,153.060211 
	C329.106628,153.553558 326.408020,151.213928 323.727997,149.011963 
	C314.129425,141.125519 312.111877,130.678299 314.760193,119.289764 
	C317.529388,107.381584 326.370392,101.377983 337.695831,99.096786 
	C352.403046,96.134430 367.813599,108.955643 369.070984,124.053238 
	C370.348480,139.391998 362.004822,149.004684 352.123169,153.302948 
	C346.778107,155.627899 341.237823,155.916885 335.323914,153.692566 
z"/>
<path fill="#F94E0F" opacity="1.000000" stroke="none" 
	d="
M335.007050,153.858093 
	C357.154999,157.660416 371.945587,139.119659 367.580902,120.789986 
	C364.642731,108.451065 353.714752,100.193329 340.860626,100.350029 
	C328.907715,100.495728 317.641510,109.543114 315.176880,120.975471 
	C312.485718,133.458954 318.452911,146.031616 329.679474,151.500870 
	C330.575073,151.937180 331.516876,152.278519 332.716370,152.877380 
	C332.415802,154.197525 331.490784,155.199860 330.277405,154.892258 
	C327.313385,154.140808 324.783203,154.357559 321.806244,155.630493 
	C318.857727,156.891281 311.724335,148.908249 313.231750,145.921585 
	C314.902863,142.610733 313.123962,140.061295 313.109619,137.178238 
	C313.079163,131.057159 312.198547,124.866295 313.652985,118.816078 
	C314.114319,116.896889 312.838562,116.156525 312.091492,114.950279 
	C310.585388,112.518311 310.337952,109.736481 311.620209,107.339722 
	C312.740967,105.244759 315.057037,105.911255 317.023956,106.496208 
	C318.881073,107.048508 320.426941,106.196701 321.345337,104.812126 
	C322.516479,103.046516 320.598846,102.158142 319.640991,101.195290 
	C318.147369,99.693878 317.752777,98.275902 318.820679,96.316040 
	C319.741547,94.626038 320.953339,93.920135 322.825745,94.013435 
	C324.841461,94.113884 325.758728,95.138962 326.030365,97.093559 
	C326.462952,100.206184 328.342590,100.264229 330.756683,99.203644 
	C335.585266,97.082291 340.678650,96.704445 345.875671,96.986458 
	C348.135101,97.109062 350.452484,96.519852 351.701172,99.494270 
	C352.178192,100.630615 353.865326,101.181541 355.634125,100.434616 
	C359.938385,98.617027 360.636200,99.182724 360.369537,103.552406 
	C360.262634,105.304192 361.389404,106.327766 362.823395,105.458290 
	C368.473236,102.032616 368.974457,106.873924 368.746277,109.789825 
	C368.351135,114.839005 369.495911,119.585182 370.007141,124.456093 
	C370.672089,130.791885 368.844971,136.987686 368.992493,143.289169 
	C369.057037,146.044907 367.159729,145.840454 365.282990,146.058655 
	C363.052460,146.317963 360.825562,146.800461 363.782684,149.548965 
	C365.364136,151.018814 364.522217,152.105240 362.711334,151.922638 
	C358.170807,151.464752 356.063385,153.784348 354.844910,157.795929 
	C353.999207,160.580368 351.287689,160.833511 349.633820,159.366196 
	C346.178741,156.300842 342.328186,155.747253 338.069183,155.985336 
	C336.729889,156.060226 335.307648,156.101898 335.007050,153.858093 
z"/>
<path fill="#EB6535" opacity="1.000000" stroke="none" 
	d="
M285.699005,137.911743 
	C294.741852,120.318336 290.554474,102.812408 277.746460,91.509171 
	C277.875458,91.123291 278.096802,91.068329 278.659027,90.984421 
	C279.175354,90.846756 279.350800,90.738052 279.759308,90.833069 
	C280.474457,91.314568 280.956482,91.592331 281.688141,91.994858 
	C283.619324,93.210625 284.512268,94.955246 285.751434,96.822647 
	C286.423370,98.283241 286.944000,99.459549 287.722290,100.826797 
	C290.288391,102.928299 290.941101,105.686401 291.825012,108.707718 
	C291.921021,114.033936 291.934662,119.020737 291.946350,124.469994 
	C291.567749,125.389870 291.488525,125.950455 291.249207,126.747650 
	C290.620209,129.026260 289.639343,130.968323 289.900513,133.553009 
	C289.374695,136.146088 289.389709,138.818695 285.699005,137.911743 
z"/>
<path fill="#F94E0F" opacity="1.000000" stroke="none" 
	d="
M285.992432,96.734528 
	C283.993988,96.218872 282.526001,94.935745 281.982910,92.451462 
	C282.028839,91.980659 282.087311,91.780487 282.215912,91.711945 
	C284.167084,90.672096 285.450745,86.530434 288.096161,89.101555 
	C290.789307,91.719078 288.548676,94.402206 285.992432,96.734528 
z"/>
<path fill="#F94E0F" opacity="1.000000" stroke="none" 
	d="
M285.479126,137.559784 
	C288.568298,138.599106 287.615387,134.916046 289.582153,134.133530 
	C292.039520,139.084686 291.066833,141.143906 286.138855,141.147736 
	C285.343842,140.163406 285.106049,139.369598 285.358948,138.045853 
	C285.448822,137.625900 285.470551,137.582489 285.479126,137.559784 
z"/>
<path fill="#F94E0F" opacity="1.000000" stroke="none" 
	d="
M272.119080,84.897659 
	C269.148529,84.415291 266.445160,83.744232 263.363953,82.993927 
	C265.593353,80.264931 271.079315,81.312088 272.119080,84.897659 
z"/>
<path fill="#F94E0F" opacity="1.000000" stroke="none" 
	d="
M292.193939,108.822227 
	C288.798309,107.577278 289.793793,103.947571 288.023804,101.383873 
	C291.853912,102.134796 293.400543,104.633736 292.193939,108.822227 
z"/>
<path fill="#F94E0F" opacity="1.000000" stroke="none" 
	d="
M334.568207,161.235580 
	C332.576477,161.670898 332.072266,160.654694 332.261658,159.145493 
	C332.355499,158.397552 333.029755,158.079971 333.694092,158.244675 
	C335.235626,158.626862 334.959930,159.839172 334.568207,161.235580 
z"/>
<path fill="#EB6535" opacity="1.000000" stroke="none" 
	d="
M276.808350,90.034973 
	C275.596375,89.840942 274.402588,89.255264 273.074707,88.363083 
	C274.405457,88.170372 276.221222,87.424629 276.808350,90.034973 
z"/>
<path fill="#EB6535" opacity="1.000000" stroke="none" 
	d="
M285.202820,137.803360 
	C285.614288,138.430939 285.779785,139.235977 285.936035,140.451752 
	C285.366150,140.843491 284.805573,140.824478 283.833984,140.707520 
	C283.934296,139.733337 284.445557,138.857071 285.202820,137.803360 
z"/>
<path fill="#F94E0F" opacity="1.000000" stroke="none" 
	d="
M291.328857,126.804565 
	C291.228668,126.427025 291.357269,125.865982 291.715179,125.118698 
	C291.815491,125.495323 291.686554,126.058189 291.328857,126.804565 
z"/>
<path fill="#EB6535" opacity="1.000000" stroke="none" 
	d="
M272.860657,87.806534 
	C272.626770,87.959488 272.299622,87.850334 271.864288,87.500145 
	C272.093201,87.354218 272.430328,87.449326 272.860657,87.806534 
z"/>
<path fill="#F94E0F" opacity="1.000000" stroke="none" 
	d="
M279.914062,90.864723 
	C279.992401,91.036789 279.494232,91.018684 279.247070,90.987076 
	C279.278503,90.867859 279.557098,90.780258 279.914062,90.864723 
z"/>
</svg>